<?xml version="1.0" encoding="UTF-8"?>
<svg version="1.1" xmlns="http://www.w3.org/2000/svg" width="800" height="211">
<path d="M0 0 C1.87384872 -0.00856522 1.87384872 -0.00856522 3.78555298 -0.01730347 C5.1776885 -0.01854889 6.56982413 -0.01967397 7.96195984 -0.02069092 C9.42210516 -0.02531817 10.88224927 -0.0303427 12.34239197 -0.03573608 C16.31562257 -0.04887184 20.28883627 -0.05530743 24.2620852 -0.05974674 C26.74362622 -0.06267582 29.22516259 -0.06678033 31.70670128 -0.07125092 C39.46853181 -0.08492947 47.23035177 -0.09459415 54.99219352 -0.09845281 C63.95628022 -0.1029334 72.92021443 -0.12047979 81.88425475 -0.1494534 C88.81000911 -0.17106275 95.73572055 -0.1811567 102.66150826 -0.18249393 C106.79933446 -0.18354257 110.93701738 -0.18946285 115.07480812 -0.20731354 C118.96786623 -0.22378119 122.86067316 -0.22595619 126.75375366 -0.21717453 C128.18200032 -0.21640343 129.61026041 -0.22075658 131.03847313 -0.23063278 C132.98963773 -0.24333296 134.94090304 -0.23569078 136.89208984 -0.22705078 C138.5294458 -0.22925062 138.5294458 -0.22925062 140.19987965 -0.2314949 C143.54986313 0.19279334 145.43407856 1.14736967 148.13652039 3.14044189 C149.67611916 6.21963944 149.34117156 9.47007837 149.37480164 12.85137939 C149.38287338 13.61592438 149.39094513 14.38046936 149.39926147 15.16818237 C149.41309852 16.7871677 149.42382238 18.40618216 149.4316864 20.02520752 C149.44890648 22.49907755 149.4927939 24.97161336 149.53691101 27.44512939 C149.54703754 29.01803623 149.55555377 30.59095443 149.56230164 32.16387939 C149.57980972 32.90254242 149.59731781 33.64120544 149.61535645 34.4022522 C149.60162526 37.65940234 149.47408868 39.68806589 147.49855804 42.33547878 C144.44401389 44.66962426 142.69666991 44.64551996 138.87394714 44.65510559 C137.58686356 44.66783005 136.29977997 44.6805545 134.97369385 44.69366455 C133.5494519 44.68748227 132.12521174 44.68087625 130.70097351 44.67388916 C129.19949495 44.68094722 127.69802351 44.68969177 126.19656372 44.69999695 C122.1200993 44.72251244 118.04402272 44.71954651 113.96751976 44.71067548 C110.56525484 44.70556847 107.163063 44.71285571 103.76080561 44.72014755 C95.73575113 44.73715304 87.71088679 44.7335738 79.68583679 44.71685791 C71.40365531 44.69992968 63.12200061 44.71577903 54.83987665 44.74808079 C47.73062311 44.77475882 40.62153374 44.78205775 33.51223516 44.77356571 C29.2654231 44.76863197 25.01892814 44.77087615 20.77215576 44.79135323 C16.77956991 44.80968296 12.78774326 44.80378579 8.79519844 44.77915382 C7.32945194 44.77413747 5.86364785 44.77765718 4.39794731 44.79030228 C2.39837948 44.80618947 0.39862794 44.7882894 -1.60090637 44.76863098 C-2.72029854 44.76804467 -3.8396907 44.76745836 -4.99300385 44.76685429 C-7.86347961 44.14044189 -7.86347961 44.14044189 -10.22254181 41.82102871 C-12.31657506 38.40027875 -12.44109468 35.50501108 -12.39472961 31.60919189 C-12.39855652 30.89565552 -12.40238342 30.18211914 -12.40632629 29.44696045 C-12.40903808 27.94421979 -12.40172816 26.44143134 -12.38496399 24.93878174 C-12.36353953 22.64685203 -12.384786 20.35805611 -12.41035461 18.06622314 C-12.4077112 16.60137252 -12.40258594 15.13652384 -12.39472961 13.67169189 C-12.40282654 12.99134888 -12.41092346 12.31100586 -12.41926575 11.61004639 C-12.32653076 6.87226644 -11.19751361 4.47447589 -7.86347961 1.14044189 C-5.15409811 -0.21424886 -3.03462807 0.00827831 0 0 Z M11.26152039 15.89044189 C9.56119738 19.2910879 9.3633364 22.47836136 10.13652039 26.14044189 C11.88951333 29.1594853 13.9667444 31.5555539 17.13652039 33.14044189 C20.93067558 33.67162362 24.59983217 33.99133537 28.02714539 32.09356689 C30.17709908 30.31933326 31.88287661 28.64772944 33.13652039 26.14044189 C33.13652039 24.16044189 33.13652039 22.18044189 33.13652039 20.14044189 C29.17652039 20.14044189 25.21652039 20.14044189 21.13652039 20.14044189 C21.13652039 21.46044189 21.13652039 22.78044189 21.13652039 24.14044189 C23.44652039 24.14044189 25.75652039 24.14044189 28.13652039 24.14044189 C27.13652039 27.14044189 27.13652039 27.14044189 25.13652039 28.14044189 C21.69902039 28.51544189 21.69902039 28.51544189 18.13652039 28.14044189 C16.13652039 26.07794189 16.13652039 26.07794189 15.13652039 23.14044189 C15.44902039 19.32794189 15.44902039 19.32794189 16.13652039 16.14044189 C20.718712 15.2592512 23.05876241 14.96563764 27.13652039 17.14044189 C29.82645092 16.83666138 29.82645092 16.83666138 32.13652039 16.14044189 C29.46349121 12.88268758 27.35913952 10.82852001 23.19902039 10.07794189 C17.90409978 9.71828691 14.99002237 12.41050671 11.26152039 15.89044189 Z M41.13652039 11.14044189 C41.02807008 13.70408672 40.94902295 16.26310468 40.88652039 18.82794189 C40.85300476 19.54917236 40.81948914 20.27040283 40.78495789 21.01348877 C40.71360635 24.91998532 40.8611732 26.70978524 43.02714539 30.09747314 C46.24516678 33.21418646 48.60352135 33.54102916 53.09745789 33.49200439 C56.58558208 32.89060367 58.08648524 30.87382208 60.13652039 28.14044189 C61.40090496 24.60016508 61.23628868 21.11727119 61.19902039 17.39044189 C61.18999695 16.21997314 61.18097351 15.04950439 61.17167664 13.84356689 C61.16007507 12.95153564 61.14847351 12.05950439 61.13652039 11.14044189 C59.48652039 11.14044189 57.83652039 11.14044189 56.13652039 11.14044189 C56.07593445 12.20005127 56.01534851 13.25966064 55.95292664 14.35137939 C55.86851912 15.73941411 55.78387122 17.12743421 55.69902039 18.51544189 C55.64004578 19.56344971 55.64004578 19.56344971 55.57987976 20.63262939 C55.24980164 25.91387939 55.24980164 25.91387939 54.13652039 28.14044189 C52.13697293 28.18298546 50.13610402 28.18124972 48.13652039 28.14044189 C46.07729637 26.08121788 46.72224459 21.92336065 46.57402039 19.07794189 C46.53083679 18.31932861 46.4876532 17.56071533 46.44316101 16.77911377 C46.33678405 14.89978752 46.23612105 13.02013946 46.13652039 11.14044189 C44.48652039 11.14044189 42.83652039 11.14044189 41.13652039 11.14044189 Z M69.13652039 11.14044189 C69.13652039 18.40044189 69.13652039 25.66044189 69.13652039 33.14044189 C70.78652039 33.14044189 72.43652039 33.14044189 74.13652039 33.14044189 C74.13652039 25.88044189 74.13652039 18.62044189 74.13652039 11.14044189 C72.48652039 11.14044189 70.83652039 11.14044189 69.13652039 11.14044189 Z M82.13652039 11.14044189 C82.13652039 18.40044189 82.13652039 25.66044189 82.13652039 33.14044189 C92.39662282 33.72323923 92.39662282 33.72323923 101.13652039 29.14044189 C103.5227784 25.39173294 103.33129112 22.54801024 102.75370789 18.26544189 C101.81320052 15.02723933 99.97224561 13.80037861 97.13652039 12.14044189 C92.87492656 10.00964498 86.72888337 11.09541873 82.13652039 11.14044189 Z M111.13652039 11.14044189 C111.13652039 18.40044189 111.13652039 25.66044189 111.13652039 33.14044189 C116.74652039 33.14044189 122.35652039 33.14044189 128.13652039 33.14044189 C128.13652039 31.82044189 128.13652039 30.50044189 128.13652039 29.14044189 C123.84652039 29.14044189 119.55652039 29.14044189 115.13652039 29.14044189 C115.13652039 27.49044189 115.13652039 25.84044189 115.13652039 24.14044189 C119.09652039 24.14044189 123.05652039 24.14044189 127.13652039 24.14044189 C127.13652039 22.82044189 127.13652039 21.50044189 127.13652039 20.14044189 C123.17652039 20.14044189 119.21652039 20.14044189 115.13652039 20.14044189 C115.13652039 18.49044189 115.13652039 16.84044189 115.13652039 15.14044189 C119.42652039 15.14044189 123.71652039 15.14044189 128.13652039 15.14044189 C128.13652039 13.82044189 128.13652039 12.50044189 128.13652039 11.14044189 C122.52652039 11.14044189 116.91652039 11.14044189 111.13652039 11.14044189 Z " fill="#F05527" transform="translate(560.8634796142578,123.85955810546875)"/>
<path d="M0 0 C7.6725 -0.061875 7.6725 -0.061875 15.5 -0.125 C17.89668945 -0.15231201 17.89668945 -0.15231201 20.34179688 -0.18017578 C21.62119141 -0.1851709 22.90058594 -0.19016602 24.21875 -0.1953125 C25.51748047 -0.20578613 26.81621094 -0.21625977 28.15429688 -0.22705078 C34.9196025 0.17237369 40.68891559 1.55351073 46 6 C49.52703283 10.93784596 49.87893098 16.12453748 49 22 C47.12644032 25.55330284 44.98062071 28.31744136 42 31 C42.94875 31.7425 43.8975 32.485 44.875 33.25 C47.43255112 35.25156174 48.84626242 36.94150698 50 40 C50.65793656 45.49300522 50.70786166 50.41438989 48.4375 55.5 C43.21213877 60.85934485 37.75344817 62.88448253 30.3112793 63.11352539 C28.8989159 63.11327791 27.48654536 63.10785384 26.07421875 63.09765625 C25.41087524 63.09664917 24.74753174 63.09564209 24.06408691 63.09460449 C21.60520682 63.08940423 19.14635153 63.07544313 16.6875 63.0625 C8.4271875 63.0315625 8.4271875 63.0315625 0 63 C0 42.21 0 21.42 0 0 Z M16 13 C16 16.96 16 20.92 16 25 C18.08218362 25.10832169 20.16599129 25.18573541 22.25 25.25 C23.41015625 25.29640625 24.5703125 25.3428125 25.765625 25.390625 C29.07354245 25.26964898 29.07354245 25.26964898 31.41796875 23.14453125 C33.24278316 21.10023601 33.24278316 21.10023601 33.0625 18.4375 C32.1449572 15.90957999 32.1449572 15.90957999 30.125 14.1875 C25.36832701 12.37996426 21.06938996 12.81676904 16 13 Z M16 37 C16 41.29 16 45.58 16 50 C19.09375 50.061875 19.09375 50.061875 22.25 50.125 C23.41015625 50.14820313 24.5703125 50.17140625 25.765625 50.1953125 C28.85452956 50.00878445 30.52777615 49.82319134 33 48 C34.08333333 44.58333333 34.08333333 44.58333333 34 41 C32.49597949 38.85139927 31.32895015 38.16447508 29 37 C24.66396021 36.8606671 20.33919329 36.95745889 16 37 Z " fill="#515252" transform="translate(520,54)"/>
<path d="M0 0 C38.9047619 0 38.9047619 0 49.4921875 10.4765625 C55.21495519 16.80885574 56.56480891 23.08587011 56.5 31.3125 C56.49427979 32.15264648 56.48855957 32.99279297 56.48266602 33.85839844 C56.23127809 42.59687976 53.57390304 48.34905058 47.8125 54.875 C35.23137339 66.54764263 15.07749169 63 0 63 C0 42.21 0 21.42 0 0 Z M16 14 C16 25.55 16 37.1 16 49 C26.67766426 49.35543576 26.67766426 49.35543576 35.5703125 44.5703125 C40.0074176 39.47398036 40.29178025 35.20632539 40.21484375 28.7265625 C39.82901229 23.83001058 38.13317617 21.07353532 34.625 17.75 C27.94516969 13.29677979 24.65336488 14 16 14 Z " fill="#515252" transform="translate(654,54)"/>
<path d="M0 0 C7.4247404 4.38537298 12.0567633 10.52887725 14.859375 18.66796875 C16.89504973 27.24785956 16.55464488 37.4310325 12.00390625 45.18359375 C6.3358513 52.79102391 1.00159028 57.18436574 -7.99609375 60.18359375 C-19.54462735 60.98320845 -28.92071089 60.48549937 -38.30859375 52.99609375 C-43.82121202 47.82940901 -47.74439737 41.08695072 -48.234375 33.48828125 C-48.53563756 21.55531183 -47.1677647 13.89236345 -38.7890625 4.90625 C-28.90811018 -4.587214 -12.19737239 -5.96453574 0 0 Z M-28.80859375 17.18359375 C-32.52872995 22.28549482 -32.64944928 27.05838561 -31.99609375 33.18359375 C-30.36941604 38.37304928 -27.82814254 42.4991222 -22.99609375 45.18359375 C-18.37791056 46.43598241 -14.86130287 46.42873633 -10.24609375 45.12109375 C-5.63914079 42.37464102 -2.73131727 39.3892643 -0.99609375 34.18359375 C-0.34069452 26.83452702 -0.1557359 20.99202318 -4.99609375 15.18359375 C-13.01971392 9.35298039 -22.07625251 9.42886258 -28.80859375 17.18359375 Z " fill="#515252" transform="translate(392.99609375,56.81640625)"/>
<path d="M0 0 C37.05263158 0 37.05263158 0 44 6 C48.77924786 11.23441432 49.73937314 16.16637773 49.421875 23.16015625 C48.6238674 28.53192965 46.49795907 31.64818328 42.4375 35.3125 C40.63691657 36.55905776 38.82217247 37.78521836 37 39 C37.39380859 39.65597168 37.78761719 40.31194336 38.19335938 40.98779297 C39.96677373 43.94750609 41.73345997 46.9111792 43.5 49.875 C44.43005859 51.42380859 44.43005859 51.42380859 45.37890625 53.00390625 C45.96542969 53.99003906 46.55195312 54.97617188 47.15625 55.9921875 C47.70087891 56.90339355 48.24550781 57.81459961 48.80664062 58.75341797 C50 61 50 61 50 63 C33.91386532 64.51755988 33.91386532 64.51755988 29.6796875 61.16015625 C28.14323735 58.50285313 27.07360035 55.87435555 26 53 C24.89900812 50.98668386 23.77420824 48.98618867 22.625 47 C20 42.26153846 20 42.26153846 20 40 C18.68 40 17.36 40 16 40 C16 47.59 16 55.18 16 63 C10.72 63 5.44 63 0 63 C0 42.21 0 21.42 0 0 Z M16 14 C16 18.62 16 23.24 16 28 C24.09970853 28.76138787 24.09970853 28.76138787 31.25 25.8125 C33.15903797 22.74440327 33.81092266 21.51399818 33 18 C31.43436652 15.73512743 31.43436652 15.73512743 29 14 C25.72599522 13.51736211 25.72599522 13.51736211 22.25 13.75 C19.15625 13.87375 19.15625 13.87375 16 14 Z " fill="#515252" transform="translate(599,54)"/>
<path d="M0 0 C5.61 0 11.22 0 17 0 C17.83144531 2.51753906 18.66289062 5.03507812 19.51953125 7.62890625 C20.33300674 10.08496078 21.14753244 12.54066468 21.9621582 14.99633789 C22.52477945 16.6942167 23.08631993 18.39245405 23.64672852 20.09106445 C24.45560691 22.54214575 25.2684512 24.99188213 26.08203125 27.44140625 C26.32903275 28.19273331 26.57603424 28.94406036 26.83052063 29.71815491 C27.07054306 30.43837326 27.31056549 31.15859161 27.55786133 31.90063477 C27.7643782 32.52462662 27.97089508 33.14861847 28.18367004 33.79151917 C29.33565888 36.90808403 30.69114097 39.9459956 32 43 C36.62 28.81 41.24 14.62 46 0 C51.61 0 57.22 0 63 0 C62.33663408 3.98019551 61.77214363 7.04376155 60.48120117 10.72924805 C60.17385544 11.61424484 59.8665097 12.49924164 59.54985046 13.41105652 C59.2175795 14.35177505 58.88530853 15.29249359 58.54296875 16.26171875 C58.19873367 17.24815872 57.8544986 18.23459869 57.49983215 19.25093079 C56.40026275 22.39806426 55.29390528 25.54276411 54.1875 28.6875 C53.45464771 30.78305265 52.72222151 32.87875436 51.99023438 34.97460938 C48.71523742 44.33722167 45.40229437 53.6827661 42 63 C35.4 63 28.8 63 22 63 C17.37668281 52.43371799 13.61094365 41.61029588 9.84179688 30.71606445 C8.74355258 27.54387718 7.63778184 24.37438277 6.53125 21.20507812 C5.82767782 19.17984279 5.12453721 17.15445748 4.421875 15.12890625 C4.09274109 14.18616348 3.76360718 13.24342072 3.42449951 12.27210999 C3.12038147 11.39026535 2.81626343 10.50842072 2.50292969 9.59985352 C2.23599304 8.82996597 1.9690564 8.06007843 1.69403076 7.26686096 C0.96589188 4.8885952 0.48778677 2.43893385 0 0 Z " fill="#515252" transform="translate(409,54)"/>
<path d="M0 0 C12.87 0 25.74 0 39 0 C39 4.29 39 8.58 39 13 C31.41 13 23.82 13 16 13 C16 16.96 16 20.92 16 25 C22.6 25 29.2 25 36 25 C36 28.96 36 32.92 36 37 C29.4 37 22.8 37 16 37 C16 41.29 16 45.58 16 50 C23.59 50 31.18 50 39 50 C39 54.29 39 58.58 39 63 C26.13 63 13.26 63 0 63 C0 42.21 0 21.42 0 0 Z " fill="#515252" transform="translate(475,54)"/>
<path d="M0 0 C5.28 0 10.56 0 16 0 C16 16.5 16 33 16 50 C22.27 50 28.54 50 35 50 C35 54.29 35 58.58 35 63 C23.45 63 11.9 63 0 63 C0 42.21 0 21.42 0 0 Z " fill="#515252" transform="translate(308,54)"/>
<path d="M0 0 C5.28 0 10.56 0 16 0 C16 20.79 16 41.58 16 63 C10.72 63 5.44 63 0 63 C0 42.21 0 21.42 0 0 Z " fill="#515252" transform="translate(576,54)"/>
<path d="M0 0 C3.3 0 6.6 0 10 0 C10.49371094 1.21558594 10.98742187 2.43117188 11.49609375 3.68359375 C12.14309709 5.2682831 12.7902397 6.85291559 13.4375 8.4375 C13.76298828 9.23994141 14.08847656 10.04238281 14.42382812 10.86914062 C14.73642578 11.63291016 15.04902344 12.39667969 15.37109375 13.18359375 C15.65911865 13.89056396 15.94714355 14.59753418 16.24389648 15.32592773 C16.88053845 16.99832767 16.88053845 16.99832767 18 18 C20.31 12.06 22.62 6.12 25 0 C28.63 0 32.26 0 36 0 C36 10.56 36 21.12 36 32 C33.03 32 30.06 32 27 32 C26.67 28.04 26.34 24.08 26 20 C24.35 23.96 22.7 27.92 21 32 C18.69 32 16.38 32 14 32 C12.35 27.71 10.7 23.42 9 19 C8.67 23.29 8.34 27.58 8 32 C5.36 32 2.72 32 0 32 C0 21.44 0 10.88 0 0 Z " fill="#515252" transform="translate(308,124)"/>
<path d="M0 0 C2.97 0 5.94 0 9 0 C11.42893427 2.59911438 12.87211425 4.48823726 14.5625 7.5 C15.21702148 8.57314453 15.21702148 8.57314453 15.88476562 9.66796875 C16.9524479 11.42788458 17.98032402 13.21184171 19 15 C19.33 10.05 19.66 5.1 20 0 C22.64 0 25.28 0 28 0 C28 10.56 28 21.12 28 32 C20 32 20 32 17.57421875 29.76953125 C16.95160156 28.79371094 16.32898438 27.81789062 15.6875 26.8125 C15.05199219 25.84957031 14.41648437 24.88664062 13.76171875 23.89453125 C12.16396247 21.26939288 10.58111641 18.63519401 9 16 C8.67 21.28 8.34 26.56 8 32 C5.36 32 2.72 32 0 32 C0 21.44 0 10.88 0 0 Z " fill="#515252" transform="translate(512,124)"/>
<path d="M0 0 C3.99317414 2.26384675 6.44338632 5.00317983 7.75 9.4375 C8.47994706 14.60035471 8.55024779 19.59993205 6.25 24.375 C2.7435955 28.67034551 -0.80422803 30.78974829 -6.265625 31.81640625 C-11.57100279 32.14015962 -15.99648358 30.58999558 -20.25 27.4375 C-24.46728825 22.3767541 -24.94013219 17.83677078 -24.6953125 11.31640625 C-24.02705768 6.99619745 -22.55171317 4.28897956 -19.25 1.4375 C-12.8612927 -2.29929106 -6.74056961 -2.90132124 0 0 Z M-13.5625 8.0625 C-15.64744561 10.99686789 -16.17657532 12.8396905 -16.25 16.4375 C-14.64588152 19.96656067 -13.50840638 21.26522908 -10.25 23.4375 C-7.19202518 23.24637657 -5.01901474 22.94133725 -2.4375 21.25 C-0.72661849 18.63865454 -0.43617479 16.54041317 -0.25 13.4375 C-1.29897582 9.59125534 -1.85537461 8.70058359 -5.25 6.4375 C-8.84247257 5.97888648 -10.56642691 5.95715134 -13.5625 8.0625 Z " fill="#515252" transform="translate(500.25,124.5625)"/>
<path d="M0 0 C3.3 0 6.6 0 10 0 C12.81556458 6.19797955 15.39053649 12.42777148 17.75 18.8125 C18.06582031 19.64458984 18.38164062 20.47667969 18.70703125 21.33398438 C19.00480469 22.13771484 19.30257813 22.94144531 19.609375 23.76953125 C20.0110791 24.84618042 20.0110791 24.84618042 20.42089844 25.94458008 C21 28 21 28 21 32 C18.03 32 15.06 32 12 32 C11.67 30.02 11.34 28.04 11 26 C7.37 26.33 3.74 26.66 0 27 C-0.99 29.475 -0.99 29.475 -2 32 C-4.97 32 -7.94 32 -11 32 C-8.3631351 20.95812825 -4.12619329 10.55560611 0 0 Z M5 11 C3.74335022 13.90600261 3 15.79604584 3 19 C4.65 19 6.3 19 8 19 C7.34 16.36 6.68 13.72 6 11 C5.67 11 5.34 11 5 11 Z " fill="#515252" transform="translate(414,124)"/>
<path d="M0 0 C2.64 0 5.28 0 8 0 C8.01981934 0.55461914 8.03963867 1.10923828 8.06005859 1.68066406 C8.15557651 4.20423693 8.26514567 6.72701224 8.375 9.25 C8.4059375 10.12269531 8.436875 10.99539062 8.46875 11.89453125 C8.50742187 12.73886719 8.54609375 13.58320313 8.5859375 14.453125 C8.6173584 15.22817383 8.6487793 16.00322266 8.68115234 16.80175781 C9.03026506 19.20865742 9.80551104 20.89602295 11 23 C12.98 22.67 14.96 22.34 17 22 C17.33 14.74 17.66 7.48 18 0 C20.97 0 23.94 0 27 0 C27.08761663 3.54150893 27.14059739 7.08273633 27.1875 10.625 C27.21263672 11.62402344 27.23777344 12.62304688 27.26367188 13.65234375 C27.31876505 19.19838958 27.19844717 23.23717916 24 28 C20.03464099 31.5936066 16.38978457 32.30297897 11.0625 32.21484375 C7.83306643 31.87844442 5.67339529 30.80298752 3 29 C0.30835548 25.32124654 -0.36558003 22.787822 -0.29296875 18.26171875 C-0.28330078 17.19501953 -0.27363281 16.12832031 -0.26367188 15.02929688 C-0.23853516 13.92650391 -0.21339844 12.82371094 -0.1875 11.6875 C-0.17396484 10.56537109 -0.16042969 9.44324219 -0.14648438 8.28710938 C-0.1112138 5.52424771 -0.06192235 2.76237171 0 0 Z " fill="#515252" transform="translate(348,124)"/>
<path d="M0 0 C8.25 0 16.5 0 25 0 C25 2.31 25 4.62 25 7 C22.36 7 19.72 7 17 7 C17 15.25 17 23.5 17 32 C14.03 32 11.06 32 8 32 C8 23.75 8 15.5 8 7 C5.36 7 2.72 7 0 7 C0 4.69 0 2.38 0 0 Z " fill="#515252" transform="translate(436,124)"/>
<path d="M0 0 C8.25 0 16.5 0 25 0 C25 2.31 25 4.62 25 7 C22.36 7 19.72 7 17 7 C17 15.25 17 23.5 17 32 C14.36 32 11.72 32 9 32 C9 23.75 9 15.5 9 7 C6.03 7 3.06 7 0 7 C0 4.69 0 2.38 0 0 Z " fill="#515252" transform="translate(377,124)"/>
<path d="M0 0 C2.64 0 5.28 0 8 0 C8 10.56 8 21.12 8 32 C5.36 32 2.72 32 0 32 C0 21.44 0 10.88 0 0 Z " fill="#515252" transform="translate(464,124)"/>
<path d="M0 0 C7.32215357 -0.36010591 7.32215357 -0.36010591 10 1.0625 C11.60856522 4.17909511 11.42213381 6.56262469 11 10 C9.4375 12.4375 9.4375 12.4375 7 14 C4.69 14 2.38 14 0 14 C0 9.38 0 4.76 0 0 Z " fill="#F05527" transform="translate(648,139)"/>
</svg>
