<?xml version="1.0" encoding="UTF-8"?>
<svg version="1.1" xmlns="http://www.w3.org/2000/svg" width="1000" height="385">
<path d="M0 0 C0.953771 -0.00453111 1.907542 -0.00906223 2.89021516 -0.01373065 C6.07661971 -0.02636063 9.26285302 -0.02475516 12.44927979 -0.02310181 C14.73785623 -0.02908795 17.02643066 -0.03589369 19.31500244 -0.04345703 C25.52588304 -0.06111605 31.73670853 -0.06581239 37.94761181 -0.0670886 C41.83011383 -0.06851088 45.71260186 -0.07278195 49.5951004 -0.07808304 C62.44701413 -0.09562896 75.29888337 -0.10492333 88.15080735 -0.10342209 C89.18897113 -0.10330222 89.18897113 -0.10330222 90.24810791 -0.10317993 C90.94106784 -0.10309817 91.63402777 -0.10301641 92.34798649 -0.10293217 C103.57252442 -0.10211967 114.79692803 -0.12125051 126.02142712 -0.14945666 C137.56253327 -0.17822822 149.10355663 -0.19162885 160.64470124 -0.19026911 C167.11778671 -0.18975977 173.59072016 -0.19542788 180.06377411 -0.21662521 C186.1541532 -0.23602504 192.24423553 -0.23611981 198.33462524 -0.22159195 C200.56501958 -0.21950491 202.79543257 -0.22419843 205.02579498 -0.23631287 C229.19187941 -0.35903129 229.19187941 -0.35903129 238.06744385 6.31039429 C238.65525635 7.0180896 239.24306885 7.72578491 239.84869385 8.45492554 C240.45713135 9.14973022 241.06556885 9.84453491 241.69244385 10.56039429 C246.64796516 18.65986662 246.82294147 26.82561498 246.73980713 36.12387085 C246.72372323 38.26351671 246.73972035 40.40127443 246.7588501 42.54086304 C246.77693585 53.31738988 245.86520584 61.51337041 238.31744385 69.54086304 C233.17191879 74.05340684 227.05111956 76.3867784 220.22717762 76.3988533 C219.40964915 76.40269445 218.59212068 76.40653559 217.74981862 76.41049314 C216.85712717 76.40962665 215.96443571 76.40876017 215.04469299 76.40786743 C214.09207413 76.41083855 213.13945527 76.41380968 212.15796918 76.41687083 C208.95761921 76.42556032 205.75730664 76.4270663 202.5569458 76.42855835 C200.26556824 76.43318637 197.97419144 76.43821101 195.68281555 76.44360352 C189.45124219 76.45673169 183.2196796 76.46317338 176.98809457 76.46761417 C173.09507556 76.47054444 169.2020595 76.47464918 165.30904198 76.47911835 C154.52504337 76.49122771 143.74104863 76.50160939 132.95704365 76.50499344 C132.26702716 76.505213 131.57701067 76.50543257 130.86608459 76.50565879 C130.17443829 76.50587707 129.482792 76.50609535 128.77018672 76.50632024 C127.36870277 76.5067637 125.96721882 76.50721026 124.56573486 76.50765991 C123.52296328 76.50799206 123.52296328 76.50799206 122.4591256 76.50833091 C111.20074096 76.5122769 99.94242112 76.52972513 88.6840615 76.55301943 C77.11820913 76.57675625 65.55239847 76.58893859 53.98652047 76.59036136 C47.49559206 76.59140945 41.00475504 76.59731821 34.51384926 76.61518097 C28.40632666 76.63166138 22.29896414 76.63381717 16.19142723 76.62504196 C13.95213263 76.62427156 11.71282943 76.62861472 9.47355652 76.63850021 C6.41138524 76.65122354 3.34978059 76.64534048 0.28761292 76.63491821 C-0.59392493 76.64297462 -1.47546278 76.65103102 -2.3837139 76.65933156 C-10.56995774 76.59438068 -17.96612428 74.84099049 -24.08099365 69.13851929 C-31.74965828 60.00098109 -31.83243431 49.81592673 -31.83880615 38.45492554 C-31.85105225 37.31732788 -31.86329834 36.17973022 -31.87591553 35.00765991 C-31.89318996 25.028798 -31.23932508 16.16972097 -24.65130615 8.26742554 C-17.22071836 1.22709971 -9.9018688 -0.0347479 0 0 Z M-0.65130615 24.26742554 C-5.05385336 30.71622708 -5.65613146 37.64496286 -4.65130615 45.26742554 C-2.20818499 53.92940056 2.99511675 58.64927308 10.48150635 63.25180054 C16.52552528 66.53934221 24.35516856 66.16430223 30.9229126 64.68930054 C37.84444362 62.03181917 43.37399303 56.45222198 46.52838135 49.76742554 C47.31575933 47.36779741 47.77025132 45.21176082 48.03619385 42.70492554 C48.12256104 41.96113647 48.20892822 41.21734741 48.2979126 40.45101929 C48.45296097 37.93358866 48.45296097 37.93358866 47.34869385 34.26742554 C38.10869385 34.26742554 28.86869385 34.26742554 19.34869385 34.26742554 C19.34869385 37.89742554 19.34869385 41.52742554 19.34869385 45.26742554 C24.29869385 45.26742554 29.24869385 45.26742554 34.34869385 45.26742554 C30.57493819 51.5570183 30.57493819 51.5570183 25.34869385 53.26742554 C20.32522741 53.54114005 16.57002927 53.08164915 12.34869385 50.26742554 C9.7556846 46.37791167 8.63622108 42.93175625 8.34869385 38.26742554 C9.16119385 34.39242554 9.16119385 34.39242554 10.34869385 31.26742554 C10.67869385 30.27742554 11.00869385 29.28742554 11.34869385 28.26742554 C14.89838431 26.38928244 17.93132552 25.99528441 21.91119385 26.01742554 C22.84060791 26.01226929 23.77002197 26.00711304 24.7276001 26.00180054 C27.4690635 26.27962395 29.05552489 26.76206298 31.34869385 28.26742554 C32.00869385 29.25742554 32.66869385 30.24742554 33.34869385 31.26742554 C39.41133607 30.60478468 39.41133607 30.60478468 45.34869385 29.26742554 C44.92960401 24.51774067 42.83937519 21.38166085 39.34869385 18.26742554 C25.53777135 9.60819635 10.10588365 12.02899741 -0.65130615 24.26742554 Z M54.34869385 14.26742554 C54.2488213 18.78396929 54.17675955 23.29990543 54.12896729 27.81723022 C54.10901661 29.34957088 54.08184569 30.88183706 54.04693604 32.41390991 C53.57727749 46.80206537 53.57727749 46.80206537 60.09967041 59.19271851 C66.16760035 64.85834505 71.98648819 65.73739698 80.12213135 65.57211304 C85.64583577 65.05050414 89.20122855 63.4389117 93.0947876 59.50180054 C100.46629952 50.52163733 99.60581547 40.25346289 99.47369385 29.26742554 C99.4636454 27.81040043 99.45452284 26.35336862 99.4463501 24.89633179 C99.42448096 21.35322224 99.39005362 17.81036742 99.34869385 14.26742554 C95.05869385 14.26742554 90.76869385 14.26742554 86.34869385 14.26742554 C86.32887451 15.21061646 86.30905518 16.15380737 86.28863525 17.12557983 C86.21034618 20.63885588 86.12364686 24.15171818 86.03131104 27.66464233 C85.99312681 29.18246532 85.95825577 30.70037555 85.92681885 32.21835327 C85.88093757 34.40559984 85.82298356 36.59225135 85.76275635 38.77914429 C85.73133545 40.09358521 85.69991455 41.40802612 85.6675415 42.76229858 C85.36720265 46.06395627 84.88520371 48.34819141 83.34869385 51.26742554 C80.44732965 53.04048144 78.68450607 53.28113216 75.28619385 53.14242554 C71.75274042 52.08990749 70.57915593 51.1955677 68.34869385 48.26742554 C67.93076389 45.53032077 67.74397174 43.17756448 67.73931885 40.43930054 C67.71451447 39.31579193 67.71451447 39.31579193 67.68920898 38.16958618 C67.64075875 35.785449 67.61936613 33.40194942 67.59869385 31.01742554 C67.57053145 29.39760184 67.54060363 27.77780781 67.5088501 26.15805054 C67.43500141 22.19456139 67.38540927 18.23142556 67.34869385 14.26742554 C63.05869385 14.26742554 58.76869385 14.26742554 54.34869385 14.26742554 Z M107.34869385 14.26742554 C107.34869385 30.76742554 107.34869385 47.26742554 107.34869385 64.26742554 C111.30869385 64.26742554 115.26869385 64.26742554 119.34869385 64.26742554 C119.34869385 47.76742554 119.34869385 31.26742554 119.34869385 14.26742554 C115.38869385 14.26742554 111.42869385 14.26742554 107.34869385 14.26742554 Z M128.34869385 14.26742554 C128.34869385 30.76742554 128.34869385 47.26742554 128.34869385 64.26742554 C132.47369385 64.32930054 136.59869385 64.39117554 140.84869385 64.45492554 C142.77552002 64.49589355 142.77552002 64.49589355 144.74127197 64.53768921 C154.01854121 64.60480076 160.91467326 63.21464201 168.34869385 57.26742554 C173.01030041 52.08929748 175.01557174 46.8651443 175.66119385 39.89242554 C174.91948201 31.28856823 171.87950615 25.00623078 165.34869385 19.26742554 C153.90714643 11.75551775 142.44633575 14.26742554 128.34869385 14.26742554 Z M181.34869385 14.26742554 C181.34869385 30.76742554 181.34869385 47.26742554 181.34869385 64.26742554 C194.21869385 64.26742554 207.08869385 64.26742554 220.34869385 64.26742554 C220.34869385 60.63742554 220.34869385 57.00742554 220.34869385 53.26742554 C211.76869385 53.26742554 203.18869385 53.26742554 194.34869385 53.26742554 C194.34869385 50.29742554 194.34869385 47.32742554 194.34869385 44.26742554 C202.26869385 44.26742554 210.18869385 44.26742554 218.34869385 44.26742554 C218.34869385 40.96742554 218.34869385 37.66742554 218.34869385 34.26742554 C210.42869385 34.26742554 202.50869385 34.26742554 194.34869385 34.26742554 C194.34869385 31.29742554 194.34869385 28.32742554 194.34869385 25.26742554 C202.92869385 25.26742554 211.50869385 25.26742554 220.34869385 25.26742554 C220.34869385 21.63742554 220.34869385 18.00742554 220.34869385 14.26742554 C207.47869385 14.26742554 194.60869385 14.26742554 181.34869385 14.26742554 Z " fill="#F05425" transform="translate(627.6513061523438,240.73257446289063)"/>
<path d="M0 0 C82.63482346 0 82.63482346 0 94.875 11.3125 C102.5433506 19.57767977 103.45321046 28.69417169 103.27734375 39.52734375 C103.06112747 44.72406448 101.97872168 48.69842988 99 53 C98.34644531 53.94552734 98.34644531 53.94552734 97.6796875 54.91015625 C94.16984219 59.4269244 89.97575133 62.25954813 85 65 C85.56847656 65.27972656 86.13695312 65.55945313 86.72265625 65.84765625 C95.31345141 70.30798562 101.32768796 75.55586452 105.1171875 84.640625 C107.54572333 93.88195602 107.58601412 105.20645016 103.32421875 113.89453125 C97.19878082 123.63379687 89.09131252 129.17952878 78 132 C73.51493421 132.88324141 69.27786125 133.12154011 64.70947266 133.11352539 C63.99507208 133.11364593 63.2806715 133.11376646 62.54462242 133.11389065 C60.25106986 133.11314919 57.95760037 133.10555618 55.6640625 133.09765625 C54.24047891 133.09618445 52.81689478 133.09516521 51.39331055 133.09460449 C46.13719873 133.08937917 40.88109854 133.0754179 35.625 133.0625 C23.86875 133.041875 12.1125 133.02125 0 133 C0 89.11 0 45.22 0 0 Z M34 27 C34 35.91 34 44.82 34 54 C37.63 54.061875 41.26 54.12375 45 54.1875 C46.69189453 54.22846802 46.69189453 54.22846802 48.41796875 54.27026367 C55.67381652 54.32974832 61.80803111 53.86458746 67.4375 48.8125 C69.45038597 45.18930526 70.20353567 42.14398623 70 38 C68.36939317 33.28935804 66.14598881 30.73028531 62 28 C58.76188636 26.92631429 55.75545721 26.88427948 52.359375 26.90234375 C50.91256348 26.90609009 50.91256348 26.90609009 49.43652344 26.90991211 C48.2199707 26.91901611 47.00341797 26.92812012 45.75 26.9375 C41.8725 26.958125 37.995 26.97875 34 27 Z M34 78 C34 87.24 34 96.48 34 106 C38.455 106.0825 42.91 106.165 47.5 106.25 C48.88896484 106.28641602 50.27792969 106.32283203 51.70898438 106.36035156 C58.95232958 106.42513624 63.92178508 106.07919035 70 102 C73.05056084 97.71014881 73.55666413 94.19553189 73 89 C71.17419996 83.82689989 68.76999961 81.62836713 64 79 C60.62367652 77.88290106 57.46239284 77.88498827 53.921875 77.90234375 C52.35324707 77.90609009 52.35324707 77.90609009 50.75292969 77.90991211 C48.77147949 77.92356812 48.77147949 77.92356812 46.75 77.9375 C42.5425 77.958125 38.335 77.97875 34 78 Z " fill="#6B6B6B" transform="translate(473,92)"/>
<path d="M0 0 C81.39518374 0 81.39518374 0 102.16015625 19.06640625 C114.72033723 32.26659645 119.56582498 49.14726327 119.375 67 C119.38660156 68.08539063 119.39820313 69.17078125 119.41015625 70.2890625 C119.34788895 87.68239488 113.20427518 103.09083014 100.88671875 115.375 C73.59717899 140.19038663 33.94643259 133 0 133 C0 89.11 0 45.22 0 0 Z M33 29 C33 53.75 33 78.5 33 104 C56.44749305 104.96390346 56.44749305 104.96390346 76 95 C84.09344075 86.18364998 86.63975657 75.79452263 86.28515625 64.015625 C85.23420187 52.90142248 81.88510857 44.56826232 73.9375 36.75 C61.52109269 26.51049527 49.6441454 29 33 29 Z " fill="#6B6B6B" transform="translate(760,92)"/>
<path d="M0 0 C1.09538086 0.00829834 2.19076172 0.01659668 3.31933594 0.02514648 C22.07811143 0.41445342 37.51768712 6.98826396 50.75 20.4375 C51.32363281 21.01242188 51.89726562 21.58734375 52.48828125 22.1796875 C64.12682634 34.75051915 69.46503479 53.16580682 68.93359375 70.046875 C67.45363604 89.31781371 61.00900022 106.03233213 46.75 119.4375 C29.04832704 133.68961618 10.99698514 136.92063234 -11.25 135.4375 C-26.21385836 133.60765512 -38.81240494 125.98613331 -49.25 115.4375 C-49.87390625 114.84710938 -50.4978125 114.25671875 -51.140625 113.6484375 C-63.96012261 100.54021247 -67.75390111 82.35365982 -67.67456055 64.68017578 C-67.2222754 47.05769437 -60.72808882 32.64467258 -48.8125 19.8125 C-47.966875 19.02875 -47.12125 18.245 -46.25 17.4375 C-45.73566406 16.90640625 -45.22132812 16.3753125 -44.69140625 15.828125 C-32.9633745 4.42797371 -15.9500579 -0.1567361 0 0 Z M-25.25 40.4375 C-31.33889419 48.9647708 -33.6446854 56.7837668 -33.625 67.1875 C-33.62338867 68.07131348 -33.62177734 68.95512695 -33.62011719 69.86572266 C-33.40880658 81.14183665 -29.88333506 90.15043112 -21.6875 98.0625 C-13.87201186 104.55381703 -5.53508486 106.09868889 4.45703125 105.75 C13.13397249 104.92656548 19.57221594 101.6269183 25.75 95.4375 C33.89006761 84.86782615 35.94454608 73.56408498 34.75 60.4375 C32.61702186 49.4231383 28.08030093 40.89693911 18.75 34.4375 C5.37239879 26.6210855 -14.90787307 28.31135618 -25.25 40.4375 Z " fill="#6B6B6B" transform="translate(164.25,90.5625)"/>
<path d="M0 0 C78.32235294 0 78.32235294 0 92.75390625 13.66015625 C101.1788136 22.92966584 103.48881643 33.51796315 103.24609375 45.796875 C102.44647176 56.20465325 97.81795448 65.7865999 90.125 72.875 C85.69289074 76.47343036 80.85101911 80 75 80 C80.46039866 91.81839711 87.32439832 102.84375814 94 114 C95.94263219 117.24697957 97.87978284 120.49711118 99.8125 123.75 C100.23885742 124.45858154 100.66521484 125.16716309 101.10449219 125.8972168 C104 130.7738296 104 130.7738296 104 133 C98.82241114 133.19815605 93.64703814 133.34309889 88.46655273 133.43945312 C86.70574497 133.47962241 84.94520306 133.53417284 83.18530273 133.60351562 C68.70159377 134.15979476 68.70159377 134.15979476 64.92822266 131.58789062 C63.56146287 129.4472753 62.81533177 127.40408021 62 125 C61.02075482 123.16300576 60.01345382 121.34079849 58.984375 119.53125 C57.90387024 117.52211134 56.82582944 115.51164602 55.75 113.5 C51.44662913 105.4898745 47.10215409 97.51273548 42.54003906 89.64648438 C40 85.21287393 40 85.21287393 40 83 C37.69 83 35.38 83 33 83 C33 99.5 33 116 33 133 C22.11 133 11.22 133 0 133 C0 89.11 0 45.22 0 0 Z M33 28 C33 38.56 33 49.12 33 60 C36.444375 60.061875 39.88875 60.12375 43.4375 60.1875 C44.50411865 60.21481201 45.5707373 60.24212402 46.66967773 60.27026367 C52.85344273 60.32346842 58.38995116 59.77583306 64 57 C68.10935381 52.89064619 69.16262203 49.39075101 69.3125 43.6875 C69.25921594 38.64549541 68.5206252 35.8060813 65 32 C60.50159439 28.81820091 56.91118203 27.87348581 51.45703125 27.90234375 C50.48999268 27.90484131 49.5229541 27.90733887 48.52661133 27.90991211 C47.30095459 27.91901611 46.07529785 27.92812012 44.8125 27.9375 C40.914375 27.958125 37.01625 27.97875 33 28 Z " fill="#6B6B6B" transform="translate(643,92)"/>
<path d="M0 0 C11.55 0 23.1 0 35 0 C40.125 15.375 40.125 15.375 41.86791992 20.60595703 C44.50804003 28.52959738 47.15031986 36.45250149 49.79962158 44.37307739 C51.04371838 48.09295027 52.28664133 51.81321491 53.52947998 55.5335083 C54.12678264 57.32043776 54.72462719 59.10718619 55.32305908 60.89373779 C58.23730469 69.59461683 61.13268715 78.30120716 63.91015625 87.046875 C64.12345078 87.70898987 64.3367453 88.37110474 64.5565033 89.05328369 C65.42947195 91.83266572 66 94.06467527 66 97 C66.66 97 67.32 97 68 97 C68.22655273 95.835896 68.45310547 94.67179199 68.68652344 93.47241211 C70.28319183 86.3115303 72.70718294 79.39632367 75.015625 72.44140625 C75.51442866 70.92809541 76.01285475 69.41466007 76.51092529 67.90110779 C77.81993842 63.92674945 79.1341817 59.95413997 80.44952393 55.98187256 C81.76781032 51.99746126 83.08089808 48.01133793 84.39453125 44.02539062 C89.23603495 29.34127594 94.09790965 14.66401164 99 0 C110.55 0 122.1 0 134 0 C131.74988136 10.12553388 131.74988136 10.12553388 130.33032227 14.13769531 C130.01070526 15.04901718 129.69108826 15.96033905 129.36178589 16.89927673 C129.01681061 17.86579666 128.67183533 18.83231659 128.31640625 19.828125 C127.76510544 21.39204735 127.76510544 21.39204735 127.20266724 22.98756409 C125.9944655 26.41023543 124.7786295 29.83013833 123.5625 33.25 C122.71491507 35.64530771 121.86767097 38.04073605 121.02075195 40.4362793 C114.17549927 59.7761582 107.2621066 79.09196035 100.32055664 98.39746094 C99.75170242 99.97973732 99.75170242 99.97973732 99.1713562 101.59397888 C98.47854175 103.52032526 97.78526458 105.44650534 97.09133911 107.37245178 C94.02259825 115.90196401 91.01716103 124.45137709 88 133 C74.14 133 60.28 133 46 133 C43.80537109 126.79703125 43.80537109 126.79703125 41.56640625 120.46875 C39.5651437 114.81248601 37.56382992 109.15624015 35.5625 103.5 C35.30299183 102.76656372 35.04348366 102.03312744 34.7761116 101.27746582 C26.66702939 78.35921748 18.55569556 55.44176915 10.43547058 32.52746582 C9.82140355 30.79355908 9.20794399 29.05943705 8.59516907 27.32507324 C7.14528906 23.22244943 5.68609701 19.1236276 4.20751953 15.03125 C3.92521988 14.24508301 3.64292023 13.45891602 3.35206604 12.64892578 C2.82333044 11.17715309 2.29096278 9.70667803 1.7542572 8.23779297 C0.71935183 5.34696524 0 3.09697605 0 0 Z " fill="#6B6B6B" transform="translate(235,92)"/>
<path d="M0 0 C26.73 0 53.46 0 81 0 C81 8.91 81 17.82 81 27 C65.16 27 49.32 27 33 27 C33 35.58 33 44.16 33 53 C47.19 53 61.38 53 76 53 C76 61.25 76 69.5 76 78 C61.81 78 47.62 78 33 78 C33 87.24 33 96.48 33 106 C48.84 106 64.68 106 81 106 C81 114.91 81 123.82 81 133 C54.27 133 27.54 133 0 133 C0 89.11 0 45.22 0 0 Z " fill="#6B6B6B" transform="translate(377,92)"/>
<path d="M0 0 C10.89 0 21.78 0 33 0 C33 35.31 33 70.62 33 107 C46.53 107 60.06 107 74 107 C74 115.58 74 124.16 74 133 C49.58 133 25.16 133 0 133 C0 89.11 0 45.22 0 0 Z " fill="#6B6B6B" transform="translate(18,92)"/>
<path d="M0 0 C7.26 0 14.52 0 22 0 C23.74276319 4.139709 25.48466677 8.27976147 27.22460938 12.4206543 C27.8136625 13.82189157 28.40316276 15.22294099 28.99316406 16.6237793 C31.00890374 21.41030108 33.01173125 26.20200024 35 31 C35.43934875 32.05849152 35.43934875 32.05849152 35.88757324 33.1383667 C36.74125044 35.20300695 37.58681103 37.27077405 38.4296875 39.33984375 C38.92452637 40.54890381 39.41936523 41.75796387 39.92919922 43.00366211 C41 46 41 46 41 49 C41.66 49 42.32 49 43 49 C43.19619934 47.90168854 43.19619934 47.90168854 43.3963623 46.78118896 C43.95526062 44.2061314 44.6904054 41.9460879 45.65820312 39.50097656 C45.99525269 38.64368958 46.33230225 37.78640259 46.67956543 36.90313721 C47.04312134 35.99150818 47.40667725 35.07987915 47.78125 34.140625 C48.15479614 33.19564148 48.52834229 32.25065796 48.91320801 31.27703857 C49.70134935 29.28594248 50.49155651 27.29566302 51.28369141 25.30615234 C52.50035128 22.24911735 53.70964357 19.18924386 54.91796875 16.12890625 C55.68446247 14.19514067 56.45137496 12.26154102 57.21875 10.328125 C57.58230591 9.40839905 57.94586182 8.4886731 58.32043457 7.54107666 C58.65748413 6.69639832 58.99453369 5.85171997 59.34179688 4.98144531 C59.63856323 4.23485657 59.93532959 3.48826782 60.24108887 2.71905518 C61 1 61 1 62 0 C69.26 0 76.52 0 84 0 C84 24.75 84 49.5 84 75 C77.73 75 71.46 75 65 75 C64.67 62.79 64.34 50.58 64 38 C59.38 50.21 54.76 62.42 50 75 C44.72 75 39.44 75 34 75 C29.38 62.79 24.76 50.58 20 38 C19.67 50.21 19.34 62.42 19 75 C12.73 75 6.46 75 0 75 C0 50.25 0 25.5 0 0 Z " fill="#6B6B6B" transform="translate(18,242)"/>
<path d="M0 0 C10.89 0 21.78 0 33 0 C33 43.89 33 87.78 33 133 C22.11 133 11.22 133 0 133 C0 89.11 0 45.22 0 0 Z " fill="#6B6B6B" transform="translate(592,92)"/>
<path d="M0 0 C19 0 19 0 23.6796875 4.328125 C24.81518471 6.26244774 25.8784677 8.24055187 26.875 10.25 C28.07036174 12.35097372 29.26700351 14.45121962 30.46484375 16.55078125 C31.04347168 17.62150879 31.62209961 18.69223633 32.21826172 19.79541016 C35.02865624 24.85011534 38.2393969 29.62305941 41.4375 34.4375 C43.273125 37.263125 45.10875 40.08875 47 43 C47.33 28.81 47.66 14.62 48 0 C53.94 0 59.88 0 66 0 C66 24.75 66 49.5 66 75 C47 75 47 75 41.77734375 69.83984375 C40.4266351 67.57987756 39.1472282 65.27596503 37.9375 62.9375 C36.63548002 60.67499493 35.33208068 58.41328311 34.02734375 56.15234375 C32.03380859 52.61193359 32.03380859 52.61193359 30 49 C26.7 44.05 23.4 39.1 20 34 C19.67 47.53 19.34 61.06 19 75 C12.73 75 6.46 75 0 75 C0 50.25 0 25.5 0 0 Z " fill="#6B6B6B" transform="translate(501,242)"/>
<path d="M0 0 C7.69059672 6.11782304 12.70603203 15.12605618 14.25390625 24.79296875 C15.1529973 36.86153707 13.13682737 47.37486168 5.25390625 56.79296875 C-1.72882203 64.44266328 -8.87210785 68.42936316 -19.25 69.203125 C-31.03490818 69.7304905 -40.63009563 68.11991754 -50.12109375 60.60546875 C-57.81988263 53.24350188 -61.88683196 43.99150999 -62.17773438 33.38647461 C-62.20861749 21.36393668 -59.82622364 11.79604743 -51.2578125 2.8359375 C-36.15950823 -9.4446428 -16.36149288 -10.63628349 0 0 Z M-38.49609375 16.60546875 C-42.9533538 22.91992048 -43.7412748 29.21112552 -42.74609375 36.79296875 C-41.11716759 41.79160481 -39.02792238 46.29272285 -34.62109375 49.35546875 C-28.41002909 52.46100108 -22.11454213 52.89419226 -15.49609375 50.73046875 C-10.09183006 46.92291933 -6.17389535 42.59243709 -4.9296875 35.9609375 C-4.31887679 28.74817275 -5.28024645 21.66497205 -9.74609375 15.79296875 C-13.95467832 11.62494885 -18.01282242 10.46740859 -23.87109375 10.29296875 C-30.34373504 10.60235286 -33.91530755 11.92057378 -38.49609375 16.60546875 Z " fill="#6B6B6B" transform="translate(477.74609375,248.20703125)"/>
<path d="M0 0 C0.91644287 0.00523682 1.83288574 0.01047363 2.77709961 0.01586914 C4.26113281 0.02070313 4.26113281 0.02070313 5.77514648 0.02563477 C6.81606445 0.03401367 7.85698242 0.04239258 8.92944336 0.05102539 C10.49662109 0.05779297 10.49662109 0.05779297 12.09545898 0.06469727 C14.68600996 0.07652627 17.27644895 0.0930085 19.86694336 0.11352539 C20.10418121 0.77956787 20.34141907 1.44561035 20.58584595 2.13183594 C22.84894191 8.48469906 25.11333534 14.83709845 27.37909889 21.18901062 C28.54321491 24.45266691 29.7068711 27.71648546 30.86938477 30.98071289 C32.21349332 34.75466222 33.55942688 38.52795674 34.90600586 42.30102539 C35.33979553 43.51733643 35.77358521 44.73364746 36.22052002 45.98681641 C39.01944673 53.81165765 41.90116932 61.59716042 44.91918945 69.34008789 C45.86694336 72.11352539 45.86694336 72.11352539 45.86694336 75.11352539 C39.26694336 75.11352539 32.66694336 75.11352539 25.86694336 75.11352539 C21.86694336 64.36352539 21.86694336 64.36352539 21.86694336 62.11352539 C12.95694336 62.11352539 4.04694336 62.11352539 -5.13305664 62.11352539 C-6.12305664 65.74352539 -7.11305664 69.37352539 -8.13305664 73.11352539 C-8.46305664 73.77352539 -8.79305664 74.43352539 -9.13305664 75.11352539 C-15.73305664 75.11352539 -22.33305664 75.11352539 -29.13305664 75.11352539 C-26.70614255 66.67505898 -23.81873027 58.42900328 -20.84399414 50.17211914 C-20.33486469 48.75396414 -19.82588497 47.33575538 -19.31704712 45.91749573 C-18.25808462 42.96781427 -17.19723004 40.01882229 -16.13500977 37.0703125 C-14.77162751 33.28530414 -13.41323673 29.49852609 -12.05623436 25.71122646 C-11.00997453 22.79296769 -9.96104895 19.87567274 -8.91130447 16.95866585 C-8.40887617 15.56146653 -7.9073042 14.16395897 -7.40659714 12.76614189 C-6.71055701 10.82422042 -6.01092806 8.88363041 -5.31030273 6.94335938 C-4.91297943 5.83878891 -4.51565613 4.73421844 -4.10629272 3.59617615 C-2.75399691 0.14657303 -2.75399691 0.14657303 0 0 Z M7.86694336 23.11352539 C6.69293748 26.54856311 5.52901127 29.98693253 4.36694336 33.42602539 C4.03307617 34.40249023 3.69920898 35.37895508 3.35522461 36.38500977 C3.0394043 37.32280273 2.72358398 38.2605957 2.39819336 39.22680664 C2.10493164 40.09088135 1.81166992 40.95495605 1.50952148 41.84521484 C0.73066364 44.20166642 0.73066364 44.20166642 0.86694336 47.11352539 C6.14694336 47.11352539 11.42694336 47.11352539 16.86694336 47.11352539 C14.22694336 39.19352539 11.58694336 31.27352539 8.86694336 23.11352539 C8.53694336 23.11352539 8.20694336 23.11352539 7.86694336 23.11352539 Z " fill="#6B6B6B" transform="translate(273.133056640625,241.886474609375)"/>
<path d="M0 0 C6.27 0 12.54 0 19 0 C19.01458252 1.38711182 19.02916504 2.77422363 19.04418945 4.20336914 C19.10232298 9.36785178 19.17955543 14.53190529 19.26245117 19.69604492 C19.29562968 21.92774471 19.32368348 24.15952698 19.34643555 26.39135742 C19.38011126 29.60631334 19.43243485 32.8205182 19.48828125 36.03515625 C19.49467117 37.02709488 19.5010611 38.01903351 19.50764465 39.04103088 C19.62826898 44.77205196 20.22949544 48.94379765 23 54 C25.91064579 56.50638943 27.60372132 56.96397467 31.4375 57.3125 C35.07736362 56.99321372 37.74026653 56.66777061 41 55 C43.64348675 49.49264176 43.34771195 43.67397717 43.4140625 37.6953125 C43.43342865 36.61619598 43.4527948 35.53707947 43.4727478 34.42526245 C43.53233942 30.99192105 43.57884761 27.55854576 43.625 24.125 C43.66319853 21.79165236 43.70225135 19.45831854 43.7421875 17.125 C43.83802434 11.41677941 43.92213102 5.70849283 44 0 C50.27 0 56.54 0 63 0 C63.09945555 7.0617266 63.17174596 14.12303843 63.21972656 21.18530273 C63.23974509 23.58381256 63.26696833 25.98227418 63.30175781 28.38061523 C63.35070613 31.84370882 63.37306731 35.3061528 63.390625 38.76953125 C63.41127014 39.82831985 63.43191528 40.88710846 63.45318604 41.97798157 C63.45611345 51.86343443 61.16735386 61.04646965 54.07421875 68.2734375 C45.14850601 75.70312682 35.26426226 76.0674176 24.13037109 75.23925781 C16.89472883 74.42663698 11.3467866 71.41592584 6.46875 66.0546875 C0.00307953 57.00962722 -0.15317772 46.70573214 -0.09765625 36.03515625 C-0.0962413 35.00184677 -0.09482635 33.96853729 -0.09336853 32.90391541 C-0.08779839 29.6234134 -0.07525141 26.34298117 -0.0625 23.0625 C-0.05748114 20.83007911 -0.05291891 18.59765715 -0.04882812 16.36523438 C-0.03783874 10.91012961 -0.02059476 5.45507661 0 0 Z " fill="#6B6B6B" transform="translate(113,242)"/>
<path d="M0 0 C19.14 0 38.28 0 58 0 C58 5.28 58 10.56 58 16 C51.73 16 45.46 16 39 16 C39 35.47 39 54.94 39 75 C32.73 75 26.46 75 20 75 C20 55.53 20 36.06 20 16 C13.4 16 6.8 16 0 16 C0 10.72 0 5.44 0 0 Z " fill="#6B6B6B" transform="translate(183,242)"/>
<path d="M0 0 C19.14 0 38.28 0 58 0 C58 5.28 58 10.56 58 16 C51.4 16 44.8 16 38 16 C38 35.47 38 54.94 38 75 C32.06 75 26.12 75 20 75 C20 55.53 20 36.06 20 16 C13.4 16 6.8 16 0 16 C0 10.72 0 5.44 0 0 Z " fill="#6B6B6B" transform="translate(322,242)"/>
<path d="M0 0 C6.27 0 12.54 0 19 0 C19 24.75 19 49.5 19 75 C12.73 75 6.46 75 0 75 C0 50.25 0 25.5 0 0 Z " fill="#6B6B6B" transform="translate(388,242)"/>
<path d="M0 0 C13.61386139 0 13.61386139 0 19 4 C21.91096205 7.09289717 22.23406255 9.82559761 22.4375 13.9375 C22.2750859 18.68281634 21.30079948 21.43861109 18 25 C12.04485614 29.4663579 8.31054668 28 0 28 C0 18.76 0 9.52 0 0 Z " fill="#F05425" transform="translate(768,266)"/>
</svg>
