<?xml version="1.0" standalone="no"?>
<!DOCTYPE svg PUBLIC "-//W3C//DTD SVG 20010904//EN"
 "http://www.w3.org/TR/2001/REC-SVG-20010904/DTD/svg10.dtd">
<svg version="1.0" xmlns="http://www.w3.org/2000/svg"
 width="1633.000000pt" height="648.000000pt" viewBox="0 0 1633.000000 648.000000"
 preserveAspectRatio="xMidYMid meet">

<g transform="translate(0.000000,648.000000) scale(0.100000,-0.100000)"
fill="#000000" stroke="none">
<path d="M6545 5445 c-14 -13 -25 -29 -25 -34 0 -20 -100 -644 -122 -764 -12
-64 -25 -114 -29 -110 -3 5 -14 31 -23 59 -22 69 -66 135 -111 170 -84 64
-227 16 -285 -97 -25 -48 -42 -146 -35 -205 8 -65 43 -134 85 -161 62 -43 178
-28 256 32 18 14 35 22 37 17 7 -11 27 -159 30 -222 l2 -55 36 -3 c25 -2 40 3
53 17 25 27 51 145 81 364 14 100 53 363 87 584 33 221 58 409 55 417 -10 25
-64 20 -92 -9z m-376 -792 c17 -16 41 -50 55 -76 l25 -49 -18 -36 c-24 -46
-69 -90 -96 -92 -59 -6 -71 7 -86 100 -22 141 43 224 120 153z"/>
<path d="M4748 5360 c-17 -13 -27 -33 -31 -62 -4 -24 -23 -164 -42 -313 -38
-292 -64 -449 -94 -590 -53 -239 -55 -253 -45 -282 7 -21 17 -29 39 -31 45 -4
76 18 92 63 7 22 30 77 50 122 l36 82 29 -21 c89 -63 200 -56 269 19 95 101
117 325 39 396 -76 69 -214 11 -306 -128 -26 -41 -49 -73 -50 -72 -2 2 8 70
22 152 57 349 90 630 79 666 -8 25 -55 25 -87 -1z m256 -770 c0 -78 -24 -169
-49 -190 -29 -24 -65 -3 -92 56 l-25 54 26 45 c41 68 91 117 118 113 22 -3 23
-7 22 -78z"/>
<path d="M2789 5153 c-9 -10 -19 -23 -22 -29 -4 -6 -20 -137 -37 -290 -30
-272 -83 -642 -121 -834 -16 -84 -16 -98 -3 -117 18 -28 32 -28 170 -3 60 12
163 24 229 27 114 6 121 8 147 34 30 29 34 45 18 69 -13 21 -194 19 -323 -4
-54 -10 -100 -16 -102 -14 -2 2 10 73 26 158 74 396 102 644 97 870 l-3 145
-31 3 c-19 2 -35 -3 -45 -15z"/>
<path d="M5288 4949 c-28 -16 -39 -44 -28 -73 20 -53 120 -22 120 37 0 13 -5
28 -12 35 -15 15 -57 15 -80 1z"/>
<path d="M4082 4916 c-23 -30 -55 -116 -163 -443 -46 -139 -86 -249 -90 -245
-4 4 -12 25 -19 47 -23 72 -77 181 -130 264 -45 70 -56 81 -80 81 -30 0 -60
-22 -60 -44 0 -7 22 -57 50 -110 59 -118 101 -223 138 -353 27 -96 29 -98 60
-101 17 -2 40 1 50 7 21 11 64 119 178 446 117 339 148 444 133 461 -17 21
-45 17 -67 -10z"/>
<path d="M5760 4790 c-67 -19 -115 -60 -180 -150 l-32 -45 4 85 c3 84 3 85
-22 88 -49 6 -58 -13 -95 -198 -18 -96 -41 -213 -49 -260 -8 -47 -21 -111 -28
-142 -16 -74 -6 -87 51 -69 52 15 81 52 81 104 0 62 22 169 40 197 9 14 35 60
58 103 69 129 127 196 173 197 25 0 30 -25 14 -77 -13 -44 -13 -49 2 -60 35
-26 90 -8 117 38 21 35 24 105 7 137 -20 38 -95 66 -141 52z"/>
<path d="M5268 4744 c-32 -17 -29 -6 -67 -229 -41 -233 -54 -332 -47 -350 8
-22 69 -19 90 4 29 32 109 533 92 576 -7 19 -33 19 -68 -1z"/>
<path d="M4328 4706 c-89 -32 -173 -118 -225 -233 -21 -46 -27 -73 -27 -133 0
-96 20 -141 81 -177 39 -22 52 -25 107 -21 44 4 81 15 117 34 46 25 54 34 57
61 4 44 -26 51 -96 24 -29 -12 -63 -21 -77 -21 -24 0 -65 41 -65 66 0 7 35 31
78 53 183 96 291 225 254 305 -22 49 -124 70 -204 42z m90 -107 c5 -28 -197
-203 -214 -186 -3 3 2 22 11 43 40 96 114 167 170 162 18 -2 31 -9 33 -19z"/>
<path d="M3295 4621 c-58 -26 -141 -120 -177 -199 -56 -120 -41 -248 36 -300
108 -73 255 -5 331 153 33 69 45 191 26 262 -17 62 -68 103 -129 103 -26 0
-65 -9 -87 -19z m93 -102 c21 -30 23 -43 20 -114 -5 -98 -42 -178 -95 -203
-101 -48 -151 88 -83 226 31 62 102 136 123 129 7 -2 23 -19 35 -38z"/>
<path d="M13615 3246 c-17 -7 -35 -19 -42 -27 -6 -8 -48 -169 -93 -359 -91
-386 -155 -644 -168 -681 -9 -23 -10 -23 -16 11 -32 166 -75 262 -129 288 -67
32 -160 7 -224 -60 -114 -119 -135 -391 -38 -494 55 -58 147 -56 249 7 27 16
50 28 51 27 8 -8 8 -210 1 -265 -8 -60 -8 -63 16 -74 20 -9 31 -8 55 4 26 14
34 29 61 120 18 57 53 196 78 308 24 112 55 249 69 304 13 55 40 172 60 260
20 88 51 223 70 300 73 299 77 328 49 339 -9 3 -16 6 -17 6 -1 -1 -16 -7 -32
-14z m-506 -915 c15 -16 38 -60 50 -96 l21 -67 -27 -50 c-34 -62 -75 -98 -114
-98 -40 0 -59 45 -59 142 0 89 14 143 45 174 32 32 51 30 84 -5z"/>
<path d="M11998 3129 c-61 -14 -189 -83 -276 -149 -161 -121 -297 -300 -426
-560 -86 -174 -116 -274 -116 -386 0 -91 19 -141 70 -191 65 -63 135 -67 246
-12 85 42 175 120 268 233 44 52 81 94 82 93 2 -1 -13 -56 -32 -122 -90 -310
-125 -457 -113 -471 34 -41 122 8 133 73 16 87 98 412 151 593 31 107 57 217
58 245 l2 50 -40 -2 c-62 -3 -247 -84 -265 -116 -13 -24 -13 -28 1 -43 15 -14
20 -14 64 0 26 9 49 15 51 13 10 -10 -158 -227 -255 -330 -112 -120 -187 -152
-244 -107 -57 45 -60 163 -7 321 94 282 320 572 558 719 100 61 152 58 152
-11 0 -54 -17 -91 -84 -179 -60 -80 -68 -113 -28 -118 35 -5 142 111 188 203
29 59 36 85 37 133 1 113 -53 150 -175 121z"/>
<path d="M12776 2719 c-28 -22 -36 -75 -14 -97 22 -22 65 -14 92 19 31 36 33
60 8 82 -25 23 -54 21 -86 -4z"/>
<path d="M12727 2478 c-18 -18 -38 -85 -91 -298 -39 -154 -69 -299 -70 -330
-1 -55 -1 -55 31 -58 49 -5 66 21 102 159 44 164 111 476 111 517 0 29 -3 32
-30 32 -19 0 -40 -9 -53 -22z"/>
<path d="M13823 2491 c-121 -30 -257 -187 -299 -346 -22 -81 -18 -193 9 -245
31 -61 74 -83 152 -77 76 5 162 46 171 81 15 62 -14 79 -93 52 -26 -9 -59 -16
-74 -16 -33 0 -59 32 -59 71 0 23 9 31 64 57 162 76 286 194 310 294 20 83
-80 154 -181 129z m47 -126 c18 -22 0 -53 -64 -107 -63 -55 -157 -120 -163
-114 -10 10 47 115 83 156 66 73 118 96 144 65z"/>
<path d="M12532 2483 c-7 -3 -51 -62 -96 -132 -46 -69 -110 -157 -142 -196
-129 -151 -153 -60 -43 162 28 56 49 112 47 124 -4 29 -29 43 -62 35 -69 -17
-182 -294 -162 -400 4 -19 20 -49 37 -67 27 -29 33 -31 79 -27 60 6 104 37
168 119 25 33 47 58 48 56 2 -2 -17 -79 -42 -172 -24 -94 -43 -183 -42 -200 3
-25 8 -30 34 -33 20 -2 36 3 47 16 21 23 156 521 180 666 8 50 -8 66 -51 49z"/>
</g>
</svg>
